<svg width="57" height="28" viewBox="0 0 57 28" fill="none" xmlns="http://www.w3.org/2000/svg">
<path d="M11.928 22.808H5.256L4.152 26H0.624L6.648 9.224H10.56L16.584 26H13.032L11.928 22.808ZM11.016 20.12L8.592 13.112L6.168 20.12H11.016ZM28.3397 17.408C29.2837 17.584 30.0597 18.056 30.6677 18.824C31.2757 19.592 31.5797 20.472 31.5797 21.464C31.5797 22.36 31.3557 23.152 30.9077 23.84C30.4757 24.512 29.8437 25.04 29.0117 25.424C28.1797 25.808 27.1957 26 26.0597 26H18.8357V9.248H25.7477C26.8837 9.248 27.8597 9.432 28.6757 9.8C29.5077 10.168 30.1317 10.68 30.5477 11.336C30.9797 11.992 31.1957 12.736 31.1957 13.568C31.1957 14.544 30.9317 15.36 30.4037 16.016C29.8917 16.672 29.2037 17.136 28.3397 17.408ZM22.1957 16.16H25.2677C26.0677 16.16 26.6837 15.984 27.1157 15.632C27.5477 15.264 27.7637 14.744 27.7637 14.072C27.7637 13.4 27.5477 12.88 27.1157 12.512C26.6837 12.144 26.0677 11.96 25.2677 11.96H22.1957V16.16ZM25.5797 23.264C26.3957 23.264 27.0277 23.072 27.4757 22.688C27.9397 22.304 28.1717 21.76 28.1717 21.056C28.1717 20.336 27.9317 19.776 27.4517 19.376C26.9717 18.96 26.3237 18.752 25.5077 18.752H22.1957V23.264H25.5797ZM33.4416 17.6C33.4416 15.952 33.8096 14.48 34.5456 13.184C35.2976 11.872 36.3136 10.856 37.5936 10.136C38.8896 9.4 40.3376 9.032 41.9376 9.032C43.8096 9.032 45.4496 9.512 46.8576 10.472C48.2656 11.432 49.2496 12.76 49.8096 14.456H45.9456C45.5616 13.656 45.0176 13.056 44.3136 12.656C43.6256 12.256 42.8256 12.056 41.9136 12.056C40.9376 12.056 40.0656 12.288 39.2976 12.752C38.5456 13.2 37.9536 13.84 37.5216 14.672C37.1056 15.504 36.8976 16.48 36.8976 17.6C36.8976 18.704 37.1056 19.68 37.5216 20.528C37.9536 21.36 38.5456 22.008 39.2976 22.472C40.0656 22.92 40.9376 23.144 41.9136 23.144C42.8256 23.144 43.6256 22.944 44.3136 22.544C45.0176 22.128 45.5616 21.52 45.9456 20.72H49.8096C49.2496 22.432 48.2656 23.768 46.8576 24.728C45.4656 25.672 43.8256 26.144 41.9376 26.144C40.3376 26.144 38.8896 25.784 37.5936 25.064C36.3136 24.328 35.2976 23.312 34.5456 22.016C33.8096 20.72 33.4416 19.248 33.4416 17.6ZM54.1674 26.168C53.5594 26.168 53.0554 25.984 52.6554 25.616C52.2714 25.232 52.0794 24.76 52.0794 24.2C52.0794 23.64 52.2714 23.176 52.6554 22.808C53.0554 22.424 53.5594 22.232 54.1674 22.232C54.7594 22.232 55.2474 22.424 55.6314 22.808C56.0154 23.176 56.2074 23.64 56.2074 24.2C56.2074 24.76 56.0154 25.232 55.6314 25.616C55.2474 25.984 54.7594 26.168 54.1674 26.168Z" fill="#131313"/>
</svg>
