<svg width="57" height="17" viewBox="0 0 57 17" fill="none" xmlns="http://www.w3.org/2000/svg">
<path d="M11.928 13.8082H5.25602L4.15202 17.0002H0.624023L6.64802 0.224227H10.56L16.584 17.0002H13.032L11.928 13.8082ZM11.016 11.1202L8.59202 4.11223L6.16802 11.1202H11.016ZM28.3397 8.40823C29.2837 8.58423 30.0597 9.05623 30.6677 9.82423C31.2757 10.5922 31.5797 11.4722 31.5797 12.4642C31.5797 13.3602 31.3557 14.1522 30.9077 14.8402C30.4757 15.5122 29.8437 16.0402 29.0117 16.4242C28.1797 16.8082 27.1957 17.0002 26.0597 17.0002H18.8357V0.248227H25.7477C26.8837 0.248227 27.8597 0.432227 28.6757 0.800227C29.5077 1.16823 30.1317 1.68023 30.5477 2.33623C30.9797 2.99223 31.1957 3.73623 31.1957 4.56823C31.1957 5.54423 30.9317 6.36023 30.4037 7.01623C29.8917 7.67223 29.2037 8.13623 28.3397 8.40823ZM22.1957 7.16023H25.2677C26.0677 7.16023 26.6837 6.98423 27.1157 6.63223C27.5477 6.26423 27.7637 5.74423 27.7637 5.07223C27.7637 4.40023 27.5477 3.88023 27.1157 3.51223C26.6837 3.14423 26.0677 2.96023 25.2677 2.96023H22.1957V7.16023ZM25.5797 14.2642C26.3957 14.2642 27.0277 14.0722 27.4757 13.6882C27.9397 13.3042 28.1717 12.7602 28.1717 12.0562C28.1717 11.3362 27.9317 10.7762 27.4517 10.3762C26.9717 9.96023 26.3237 9.75223 25.5077 9.75223H22.1957V14.2642H25.5797ZM33.4416 8.60023C33.4416 6.95223 33.8096 5.48023 34.5456 4.18423C35.2976 2.87223 36.3136 1.85623 37.5936 1.13623C38.8896 0.400227 40.3376 0.0322266 41.9376 0.0322266C43.8096 0.0322266 45.4496 0.512227 46.8576 1.47223C48.2656 2.43223 49.2496 3.76023 49.8096 5.45623H45.9456C45.5616 4.65623 45.0176 4.05623 44.3136 3.65623C43.6256 3.25623 42.8256 3.05623 41.9136 3.05623C40.9376 3.05623 40.0656 3.28823 39.2976 3.75223C38.5456 4.20023 37.9536 4.84023 37.5216 5.67223C37.1056 6.50423 36.8976 7.48023 36.8976 8.60023C36.8976 9.70423 37.1056 10.6802 37.5216 11.5282C37.9536 12.3602 38.5456 13.0082 39.2976 13.4722C40.0656 13.9202 40.9376 14.1442 41.9136 14.1442C42.8256 14.1442 43.6256 13.9442 44.3136 13.5442C45.0176 13.1282 45.5616 12.5202 45.9456 11.7202H49.8096C49.2496 13.4322 48.2656 14.7682 46.8576 15.7282C45.4656 16.6722 43.8256 17.1442 41.9376 17.1442C40.3376 17.1442 38.8896 16.7842 37.5936 16.0642C36.3136 15.3282 35.2976 14.3122 34.5456 13.0162C33.8096 11.7202 33.4416 10.2482 33.4416 8.60023ZM54.1674 17.1682C53.5594 17.1682 53.0554 16.9842 52.6554 16.6162C52.2714 16.2322 52.0794 15.7602 52.0794 15.2002C52.0794 14.6402 52.2714 14.1762 52.6554 13.8082C53.0554 13.4242 53.5594 13.2322 54.1674 13.2322C54.7594 13.2322 55.2474 13.4242 55.6314 13.8082C56.0154 14.1762 56.2074 14.6402 56.2074 15.2002C56.2074 15.7602 56.0154 16.2322 55.6314 16.6162C55.2474 16.9842 54.7594 17.1682 54.1674 17.1682Z" fill="#131313"/>
</svg>
