<svg width="340" height="227" viewBox="0 0 340 227" fill="none" xmlns="http://www.w3.org/2000/svg">
<path d="M75.1937 144.119C71.2594 144.809 67.2559 145.017 63.1145 145.568L50.4825 108.571V147.156C46.5481 147.57 42.9589 148.122 39.2314 148.674V77.9922H49.7236L64.0807 118.097V77.9922H75.1937V144.119ZM96.9369 103.877C101.217 103.877 107.774 103.67 111.709 103.67V114.714C106.807 114.714 101.079 114.714 96.9369 114.921V131.349C103.426 130.935 109.914 130.382 116.471 130.175V140.805L85.8926 143.221V77.9922H116.471V89.0363H96.9369V103.877ZM157.541 89.0366H146.083V139.839C142.356 139.839 138.628 139.839 135.04 139.977V89.0366H123.581V77.9922H157.542L157.541 89.0366ZM175.488 103.118H190.605V114.162H175.488V139.218H164.65V77.9922H195.506V89.0363H175.488V103.118ZM213.452 129.554C219.734 129.692 226.084 130.176 232.227 130.521V141.427C222.357 140.805 212.486 140.185 202.408 139.977V77.9922H213.452V129.554ZM241.545 142.186C245.066 142.393 248.793 142.601 252.382 143.014V77.9922H241.545V142.186ZM300.77 77.9922L286.757 111.608L300.77 148.674C296.628 148.122 292.486 147.363 288.345 146.673L280.407 126.241L272.332 145.017C268.328 144.326 264.462 144.119 260.46 143.566L274.679 111.193L261.839 77.9922H273.711L280.959 96.5601L288.69 77.9922H300.77Z" fill="#D81F26"/>
</svg>
