<svg width="340" height="227" viewBox="0 0 340 227" fill="none" xmlns="http://www.w3.org/2000/svg">
<path d="M116.707 117.199L142.259 48.3379H125.369L113.676 78.2208L116.274 48.3379H98.5177L72.9656 117.199H89.4229L101.982 83.8509L99.8169 116.332L116.707 117.199ZM136.629 117.199L162.181 48.3379H146.157L120.172 117.199H136.629ZM182.969 112.868L182.103 78.2208L206.356 50.0702L182.969 112.868ZM300.769 88.6149L218.483 109.836L220.648 103.34H203.324L208.955 86.8825H223.68L228.01 74.3231L213.285 75.1892L218.483 61.3305H232.774L237.538 48.771H191.198L174.308 68.6929L182.536 48.3379H166.079L140.527 117.199H157.417L168.245 87.7487V117.199H189.899L112.376 137.554C104.292 139.863 97.0738 140.874 90.7221 140.585C84.3701 140.296 79.4619 138.564 75.9972 135.388C68.2017 129.614 65.4585 120.807 67.7686 108.97C69.2121 101.174 72.3879 93.6677 77.2965 86.4495C65.7474 98.5759 57.2299 108.826 51.7444 117.199C45.6812 126.149 41.7834 134.955 40.0511 143.617C38.3187 152.279 39.3291 159.352 43.0827 164.838C53.1879 181.584 75.2753 182.739 109.345 168.303L300.769 88.6149Z" fill="#333333"/>
</svg>
