<svg width="340" height="227" viewBox="0 0 340 227" fill="none" xmlns="http://www.w3.org/2000/svg">
<path d="M177.07 93.0309C177.07 95.9722 174.701 98.3416 171.76 98.3416C168.818 98.3416 166.449 95.9722 166.449 93.0309C166.449 90.0896 168.737 87.7202 171.76 87.7202C174.783 87.8019 177.07 90.1713 177.07 93.0309ZM155.174 103.734V105.041C155.174 105.041 152.641 101.773 147.249 101.773C138.343 101.773 131.398 108.555 131.398 117.95C131.398 127.265 138.261 134.128 147.249 134.128C152.723 134.128 155.174 130.778 155.174 130.778V132.167C155.174 132.82 155.664 133.311 156.318 133.311H162.936V102.59H156.318C155.664 102.59 155.174 103.162 155.174 103.734V103.734ZM155.174 123.424C153.948 125.222 151.497 126.774 148.556 126.774C143.327 126.774 139.324 123.506 139.324 117.95C139.324 112.395 143.327 109.126 148.556 109.126C151.416 109.126 154.03 110.76 155.174 112.476V123.424ZM167.838 102.59H175.681V133.311H167.838V102.59ZM285 101.773C279.608 101.773 277.075 105.041 277.075 105.041V87.8019H269.232V133.311H275.85C276.503 133.311 276.993 132.739 276.993 132.167V130.778C276.993 130.778 279.526 134.128 284.919 134.128C293.824 134.128 300.769 127.265 300.769 117.95C300.769 108.636 293.824 101.773 285 101.773V101.773ZM283.693 126.693C280.67 126.693 278.301 125.14 277.075 123.343V112.395C278.301 110.76 280.915 109.045 283.693 109.045C288.922 109.045 292.925 112.313 292.925 117.869C292.925 123.424 288.922 126.693 283.693 126.693V126.693ZM265.146 115.091V133.392H257.303V115.989C257.303 110.924 255.669 108.881 251.257 108.881C248.887 108.881 246.436 110.107 244.884 111.904V133.311H237.041V102.59H243.25C243.904 102.59 244.394 103.162 244.394 103.734V105.041C246.681 102.672 249.704 101.773 252.728 101.773C256.159 101.773 259.019 102.754 261.306 104.714C264.084 107.002 265.146 109.943 265.146 115.091V115.091ZM218.004 101.773C212.611 101.773 210.078 105.041 210.078 105.041V87.8019H202.235V133.311H208.853C209.507 133.311 209.997 132.739 209.997 132.167V130.778C209.997 130.778 212.53 134.128 217.922 134.128C226.828 134.128 233.772 127.265 233.772 117.95C233.854 108.636 226.909 101.773 218.004 101.773V101.773ZM216.696 126.693C213.673 126.693 211.304 125.14 210.078 123.343V112.395C211.304 110.76 213.919 109.045 216.696 109.045C221.925 109.045 225.929 112.313 225.929 117.869C225.929 123.424 221.925 126.693 216.696 126.693V126.693ZM195.454 101.773C197.823 101.773 199.049 102.182 199.049 102.182V109.453C199.049 109.453 192.512 107.247 188.427 111.904V133.392H180.584V102.59H187.202C187.855 102.59 188.345 103.162 188.345 103.734V105.041C189.816 103.326 193.003 101.773 195.454 101.773V101.773ZM113.996 130.533C113.587 129.552 113.179 128.49 112.77 127.591C112.116 126.121 111.463 124.732 110.891 123.424L110.809 123.343C105.172 111.087 99.1257 98.6684 92.7528 86.413L92.5077 85.9227C91.8541 84.6972 91.2005 83.39 90.5468 82.0827C89.7298 80.612 88.9128 79.0597 87.6055 77.589C84.991 74.3209 81.2327 72.5234 77.2292 72.5234C73.1441 72.5234 69.4674 74.3209 66.7712 77.4256C65.5457 78.8963 64.6469 80.4486 63.8299 81.9193C63.1763 83.2265 62.5227 84.5338 61.869 85.7593L61.6239 86.2496C55.3328 98.505 49.2051 110.924 43.5675 123.179L43.4858 123.343C42.9139 124.65 42.2603 126.039 41.6067 127.51C41.1982 128.408 40.7896 129.389 40.3811 130.451C39.319 133.474 38.9922 136.334 39.4007 139.275C40.2994 145.403 44.3846 150.55 50.0221 152.838C52.1464 153.736 54.3524 154.145 56.64 154.145C57.2937 154.145 58.1107 154.063 58.7643 153.981C61.4605 153.655 64.2384 152.756 66.9346 151.204C70.2845 149.324 73.4709 146.628 77.0658 142.706C80.6608 146.628 83.9289 149.324 87.197 151.204C89.8932 152.756 92.6711 153.655 95.3673 153.981C96.0209 154.063 96.838 154.145 97.4916 154.145C99.7793 154.145 102.067 153.736 104.11 152.838C109.829 150.55 113.832 145.321 114.731 139.275C115.385 136.415 115.058 133.556 113.996 130.533ZM77.1475 134.781C72.7356 129.225 69.8759 123.996 68.8955 119.584C68.487 117.705 68.4053 116.071 68.6504 114.601C68.8138 113.293 69.304 112.149 69.9576 111.169C71.51 108.963 74.1245 107.574 77.1475 107.574C80.1705 107.574 82.8667 108.881 84.3374 111.169C84.991 112.149 85.4812 113.293 85.6446 114.601C85.8898 116.071 85.8081 117.787 85.3995 119.584C84.4191 123.915 81.5595 129.144 77.1475 134.781V134.781ZM109.747 138.621C109.175 142.87 106.316 146.546 102.312 148.181C100.351 148.998 98.2269 149.243 96.1026 148.998C94.0601 148.752 92.0175 148.099 89.8932 146.873C86.9519 145.239 84.0106 142.706 80.5791 138.948C85.9715 132.33 89.2396 126.284 90.4651 120.892C91.0371 118.359 91.1188 116.071 90.8736 113.947C90.5468 111.904 89.8115 110.025 88.6677 108.391C86.1349 104.714 81.8863 102.59 77.1475 102.59C72.4087 102.59 68.1602 104.796 65.6274 108.391C64.4835 110.025 63.7482 111.904 63.4214 113.947C63.0946 116.071 63.1763 118.441 63.8299 120.892C65.0555 126.284 68.4053 132.412 73.716 139.03C70.3662 142.788 67.3431 145.321 64.4018 146.955C62.2776 148.181 60.235 148.834 58.1924 149.079C55.9864 149.324 53.8621 148.998 51.983 148.262C47.9795 146.628 45.1199 142.952 44.548 138.703C44.3029 136.66 44.4663 134.618 45.2833 132.33C45.5284 131.513 45.9369 130.696 46.3454 129.716C46.9174 128.408 47.571 127.019 48.2246 125.63L48.3063 125.467C53.9438 113.293 59.9899 100.874 66.281 88.7824L66.5261 88.2921C67.1797 87.0666 67.8334 85.7593 68.487 84.5338C69.1406 83.2265 69.8759 82.001 70.7747 80.9389C72.4904 78.978 74.7781 77.9158 77.3109 77.9158C79.8437 77.9158 82.1314 78.978 83.8472 80.9389C84.7459 82.001 85.4812 83.2265 86.1349 84.5338C86.7885 85.7593 87.4421 87.0666 88.0957 88.2921L88.3408 88.7824C94.5503 100.956 100.596 113.375 106.234 125.549V125.63C106.887 126.938 107.459 128.408 108.113 129.716C108.522 130.696 108.93 131.513 109.175 132.33C109.829 134.454 110.074 136.497 109.747 138.621V138.621Z" fill="#FF5A5F"/>
</svg>
