<svg width="340" height="227" viewBox="0 0 340 227" fill="none" xmlns="http://www.w3.org/2000/svg">
<path d="M131.564 117.577L130.005 121.994H129.875C129.615 120.998 129.139 119.482 128.359 117.663L120.001 96.6587H111.815V130.136H117.229V109.478C117.229 108.179 117.229 106.706 117.186 104.887C117.142 103.978 117.056 103.285 117.012 102.765H117.142C117.402 104.064 117.705 105.017 117.922 105.624L127.969 130.049H131.781L141.741 105.407C141.958 104.844 142.174 103.718 142.391 102.765H142.521C142.391 105.234 142.304 107.442 142.261 108.785V130.006H148.021V96.5721H140.139L131.564 117.577ZM153.478 106.013H159.108V130.006H153.478V106.013ZM156.336 95.8792C155.384 95.8792 154.604 96.2256 153.954 96.8319C153.305 97.4382 152.958 98.2178 152.958 99.1706C152.958 100.08 153.305 100.86 153.954 101.466C154.604 102.072 155.384 102.375 156.336 102.375C157.289 102.375 158.112 102.029 158.718 101.466C159.368 100.86 159.714 100.08 159.714 99.1706C159.714 98.2611 159.368 97.4816 158.718 96.8319C158.155 96.2256 157.332 95.8792 156.336 95.8792M179.073 105.797C178.034 105.58 176.951 105.45 175.912 105.45C173.356 105.45 171.018 106.013 169.069 107.139C167.12 108.265 165.561 109.824 164.565 111.773C163.525 113.765 163.006 116.061 163.006 118.703C163.006 120.998 163.525 123.033 164.522 124.896C165.518 126.715 166.904 128.187 168.766 129.183C170.541 130.179 172.62 130.699 174.959 130.699C177.644 130.699 179.939 130.136 181.758 129.097L181.802 129.053V123.856L181.585 124.03C180.762 124.636 179.809 125.156 178.857 125.459C177.86 125.805 176.951 125.978 176.171 125.978C173.919 125.978 172.144 125.329 170.888 123.9C169.589 122.514 168.939 120.608 168.939 118.226C168.939 115.758 169.589 113.809 170.931 112.38C172.274 110.95 174.049 110.214 176.215 110.214C178.034 110.214 179.896 110.82 181.585 112.033L181.802 112.206V106.706L181.758 106.663C181.022 106.36 180.199 106.013 179.073 105.797M197.652 105.624C196.266 105.624 194.967 106.057 193.841 106.966C192.888 107.746 192.239 108.872 191.676 110.214H191.633V106.013H186.002V130.006H191.633V117.75C191.633 115.671 192.066 113.939 193.018 112.683C193.971 111.384 195.184 110.734 196.656 110.734C197.176 110.734 197.696 110.864 198.345 110.95C198.952 111.124 199.385 111.297 199.688 111.513L199.904 111.687V106.057L199.774 106.013C199.385 105.753 198.605 105.624 197.652 105.624M212.983 105.494C209.042 105.494 205.881 106.663 203.672 108.958C201.42 111.254 200.337 114.415 200.337 118.399C200.337 122.124 201.463 125.156 203.629 127.364C205.794 129.53 208.739 130.656 212.42 130.656C216.275 130.656 219.35 129.486 221.559 127.148C223.811 124.809 224.893 121.691 224.893 117.836C224.893 114.025 223.854 110.994 221.732 108.785C219.696 106.576 216.708 105.494 212.983 105.494M217.488 123.943C216.448 125.285 214.802 125.935 212.767 125.935C210.731 125.935 209.086 125.285 207.916 123.856C206.747 122.514 206.184 120.565 206.184 118.096C206.184 115.541 206.79 113.592 207.916 112.206C209.086 110.82 210.688 110.128 212.724 110.128C214.716 110.128 216.275 110.777 217.401 112.12C218.527 113.462 219.133 115.411 219.133 117.966C219.047 120.565 218.57 122.6 217.488 123.943M237.453 115.974C235.677 115.238 234.551 114.675 234.031 114.199C233.598 113.765 233.382 113.159 233.382 112.38C233.382 111.73 233.641 111.08 234.291 110.647C234.941 110.214 235.677 109.998 236.76 109.998C237.712 109.998 238.709 110.171 239.661 110.431C240.614 110.691 241.48 111.08 242.173 111.6L242.39 111.773V106.49L242.26 106.446C241.61 106.187 240.744 105.927 239.705 105.71C238.665 105.537 237.712 105.45 236.933 105.45C234.248 105.45 232.039 106.1 230.307 107.529C228.574 108.872 227.752 110.691 227.752 112.813C227.752 113.939 227.925 114.935 228.315 115.758C228.704 116.58 229.267 117.36 230.047 118.01C230.826 118.616 231.952 119.309 233.512 119.959C234.811 120.522 235.807 120.955 236.413 121.301C237.02 121.648 237.409 122.037 237.712 122.34C237.929 122.687 238.059 123.12 238.059 123.683C238.059 125.285 236.846 126.065 234.378 126.065C233.425 126.065 232.429 125.892 231.26 125.502C230.09 125.112 229.008 124.549 228.098 123.9L227.882 123.726V129.226L228.011 129.27C228.834 129.66 229.83 129.919 231.043 130.223C232.256 130.439 233.338 130.612 234.291 130.612C237.193 130.612 239.575 129.963 241.264 128.534C242.996 127.148 243.906 125.372 243.906 123.077C243.906 121.474 243.472 120.045 242.52 118.962C241.264 117.923 239.705 116.84 237.453 115.974M258.76 105.494C254.819 105.494 251.658 106.663 249.449 108.958C247.24 111.254 246.114 114.415 246.114 118.399C246.114 122.124 247.24 125.156 249.406 127.364C251.571 129.53 254.516 130.656 258.197 130.656C262.052 130.656 265.127 129.486 267.335 127.148C269.587 124.809 270.67 121.691 270.67 117.836C270.67 114.025 269.631 110.994 267.509 108.785C265.473 106.576 262.485 105.494 258.76 105.494M263.221 123.943C262.182 125.285 260.536 125.935 258.5 125.935C256.422 125.935 254.819 125.285 253.65 123.856C252.481 122.514 251.918 120.565 251.918 118.096C251.918 115.541 252.524 113.592 253.65 112.206C254.819 110.82 256.422 110.128 258.457 110.128C260.406 110.128 262.008 110.777 263.134 112.12C264.26 113.462 264.867 115.411 264.867 117.966C264.867 120.565 264.304 122.6 263.221 123.943M300.769 110.647V106.013H295.096V98.9107L294.923 98.954L289.552 100.556L289.423 100.6V106.013H280.934V102.982C280.934 101.596 281.281 100.513 281.887 99.8202C282.493 99.1273 283.403 98.7808 284.529 98.7808C285.308 98.7808 286.131 98.954 287.041 99.3438L287.257 99.4737V94.5799L287.127 94.5366C286.348 94.2767 285.308 94.1035 283.966 94.1035C282.277 94.1035 280.804 94.4933 279.462 95.1429C278.119 95.8792 277.123 96.8752 276.387 98.2178C275.65 99.517 275.261 100.99 275.261 102.679V106.013H271.32V110.604H275.261V130.006H280.934V110.647H289.423V122.99C289.423 128.057 291.804 130.612 296.568 130.612C297.348 130.612 298.171 130.482 298.95 130.353C299.773 130.179 300.379 129.963 300.726 129.79L300.769 129.746V125.112L300.553 125.285C300.206 125.502 299.903 125.675 299.383 125.805C298.95 125.935 298.561 125.978 298.257 125.978C297.131 125.978 296.352 125.719 295.789 125.069C295.269 124.463 295.009 123.466 295.009 121.994V110.647H300.769Z" fill="#737373"/>
<path d="M39.2305 85.4004H65.7784V111.948H39.2305V85.4004Z" fill="#F25022"/>
<path d="M68.5508 85.4004H95.0987V111.948H68.5508V85.4004Z" fill="#7FBA00"/>
<path d="M39.2305 114.719H65.7784V141.267H39.2305V114.719Z" fill="#00A4EF"/>
<path d="M68.5508 114.719H95.0987V141.267H68.5508V114.719Z" fill="#FFB900"/>
</svg>
