<svg width="340" height="227" viewBox="0 0 340 227" fill="none" xmlns="http://www.w3.org/2000/svg">
<path d="M122.938 101.874V138.878H111.158V92.3659L135.477 92.3889C145.806 92.3889 149.325 99.6733 149.325 106.29V138.878H137.567V106.351C137.567 103.58 136.132 101.874 132.672 101.874H122.938ZM203.036 101.318C199.01 101.318 195.894 103.388 194.593 106.198C193.821 107.885 193.557 109.178 193.466 111.243H211.588C211.355 106.198 209.067 101.318 203.036 101.318M193.466 119.26C193.466 125.285 197.211 129.72 203.898 129.72C209.101 129.72 211.687 128.278 214.695 125.285L221.971 132.232C217.312 136.83 212.424 139.624 203.812 139.624C192.536 139.624 181.745 133.475 181.745 115.555C181.745 100.245 191.166 91.5769 203.547 91.5769C216.097 91.5769 223.346 101.725 223.346 115.017V119.26H193.466M171.801 138.82C162.205 138.82 158.133 132.14 158.133 125.542V79.6926H169.894V92.3651H178.76V101.874H169.894V124.805C169.894 127.507 171.171 129.007 173.976 129.007H178.76V138.82H171.801M100.678 85.9381H88.8171V74.6713H100.678V85.9381ZM100.708 139.367C91.826 138.514 88.804 133.126 88.804 126.91L88.8178 92.3659H100.708V139.367V139.367ZM242.065 138.373C233.202 137.519 230.195 132.14 230.195 125.931V73.0688H242.065V138.373ZM283.562 80.7084C272.804 28.2605 170.997 24.9402 105.376 64.8885V69.2993C170.93 35.6095 263.903 35.8087 272.374 84.1149C275.207 100.088 266.207 116.741 250.132 126.313V138.837C269.48 131.758 289.323 108.805 283.562 80.7076M164.278 172.469C118.988 176.656 71.7946 170.083 65.1907 134.693C61.958 117.247 69.906 98.7536 80.4492 87.2661V81.1236C61.4682 97.7671 51.1679 118.837 57.0981 143.735C64.667 175.661 105.171 193.754 166.995 187.745C191.456 185.358 223.471 177.492 245.728 165.276V147.921C225.532 159.948 192.112 169.893 164.278 172.469" fill="#0071C5"/>
<path d="M255.787 76.5787C255.787 76.0035 255.451 75.8205 254.682 75.8205H253.94V77.4491C254.048 77.4491 254.587 77.4691 254.682 77.4691C255.451 77.4691 255.787 77.2123 255.787 76.674V76.5787V76.5787ZM256.943 80.618H256.064C256.026 80.6172 255.989 80.6058 255.956 80.5852C255.924 80.5646 255.898 80.5355 255.881 80.5012L254.682 78.4688C254.661 78.4273 254.557 78.378 254.516 78.378H253.978V80.3935C253.978 80.5012 253.903 80.618 253.762 80.618H252.967C252.867 80.618 252.768 80.5012 252.768 80.3935V75.2945C252.768 74.9992 252.883 74.8762 253.132 74.8377C253.413 74.8008 254.176 74.7762 254.587 74.7762C256.047 74.7762 256.931 75.2068 256.931 76.5787V76.674C256.931 77.523 256.508 77.9713 255.853 78.1904L257.096 80.2928C257.104 80.3358 257.133 80.3935 257.133 80.4435C257.133 80.5258 257.084 80.618 256.943 80.618M254.856 73.8558C252.693 73.8558 250.944 75.6413 250.944 77.7929C250.944 78.8301 251.357 79.8247 252.091 80.558C252.824 81.2913 253.819 81.7034 254.856 81.7038C257.008 81.7038 258.775 79.946 258.775 77.7921C258.775 75.6413 257.008 73.855 254.856 73.855M254.856 82.5143C254.236 82.5155 253.621 82.3942 253.047 82.1574C252.474 81.9207 251.952 81.573 251.514 81.1344C251.075 80.6957 250.726 80.1748 250.489 79.6014C250.252 79.028 250.13 78.4134 250.131 77.7929C250.13 77.1722 250.252 76.5575 250.489 75.984C250.727 75.4105 251.075 74.8894 251.514 74.4505C251.952 74.0117 252.474 73.6637 253.047 73.4265C253.621 73.1894 254.235 73.0677 254.856 73.0684C257.456 73.0684 259.593 75.1953 259.593 77.7921C259.593 80.3935 257.456 82.5143 254.856 82.5143Z" fill="#0071C5"/>
</svg>
